<?xml version="1.0" encoding="UTF-8" standalone="no"?>
<!-- Created with Inkscape (http://www.inkscape.org/) -->

<svg
   xmlns:dc="http://purl.org/dc/elements/1.1/"
   xmlns:cc="http://creativecommons.org/ns#"
   xmlns:rdf="http://www.w3.org/1999/02/22-rdf-syntax-ns#"
   xmlns:svg="http://www.w3.org/2000/svg"
   xmlns="http://www.w3.org/2000/svg"
   xmlns:sodipodi="http://sodipodi.sourceforge.net/DTD/sodipodi-0.dtd"
   xmlns:inkscape="http://www.inkscape.org/namespaces/inkscape"
   version="1.1"
   width="60"
   height="60"
   id="svg3862"
   inkscape:version="0.48.3.1 r9886"
   sodipodi:docname="webHint.svg">
  <sodipodi:namedview
     pagecolor="#ffffff"
     bordercolor="#666666"
     borderopacity="1"
     objecttolerance="10"
     gridtolerance="10"
     guidetolerance="10"
     inkscape:pageopacity="0"
     inkscape:pageshadow="2"
     inkscape:window-width="1094"
     inkscape:window-height="662"
     id="namedview7"
     showgrid="false"
     inkscape:zoom="3.6875"
     inkscape:cx="6.5084745"
     inkscape:cy="45.966102"
     inkscape:window-x="0"
     inkscape:window-y="24"
     inkscape:window-maximized="0"
     inkscape:current-layer="layer1" />
  <defs
     id="defs3864" />
  <metadata
     id="metadata3867">
    <rdf:RDF>
      <cc:Work
         rdf:about="">
        <dc:format>image/svg+xml</dc:format>
        <dc:type
           rdf:resource="http://purl.org/dc/dcmitype/StillImage" />
        <dc:title />
      </cc:Work>
    </rdf:RDF>
  </metadata>
  <g
     id="layer1"
     transform="translate(0,44)">
    <path
       d="M 30,-44 C 13.431457,-44 0,-30.568543 0,-14 0,2.568543 13.431457,16 30,16 46.568543,16 60,2.568543 60,-14 60,-30.568543 46.568543,-44 30,-44 z m 2.109375,3.867187 c 4.748755,0.377278 9.072896,2.001863 12.773438,4.570313 l -1.054688,-0.234375 -1.289062,-0.46875 -1.875,0.46875 -1.171876,0.820312 0,0.703126 -1.992187,1.289062 0.46875,1.875 1.054687,-0.820312 0.703126,0.820312 0.820312,0.46875 0.46875,-1.40625 -0.234375,-0.820312 0.234375,-0.585938 1.171875,-1.054688 0.46875,0 -0.46875,1.171876 0,1.054687 c 0.461171,-0.128063 0.934305,-0.174487 1.40625,-0.234375 l -1.289063,0.9375 -0.117187,0.585938 -1.523437,1.289062 -1.523438,-0.351562 0,-0.9375 -0.703125,0.46875 0.351563,0.820312 -1.171876,0 -0.585937,1.054688 -0.703125,0.820312 -1.40625,0.234375 0.820312,0.820313 0.234376,0.820312 -1.054688,0 -1.289062,0.703125 0,2.109375 0.585937,0 0.585937,0.585938 1.289063,-0.585938 0.46875,-1.289062 0.9375,-0.585938 0.117187,-0.46875 1.523438,-0.351562 0.820312,0.9375 0.9375,0.46875 -0.585937,1.054687 0.820313,-0.234375 0.46875,-1.054688 -1.054688,-1.171874 0.46875,0 0.9375,0.820312 0.234375,1.171875 0.820313,1.054687 0.234374,-1.523437 0.46875,-0.234375 c 0.496249,0.52563 0.871103,1.16625 1.289063,1.757812 l 1.640625,0.117188 0.820312,0.585938 -0.351562,0.585937 -0.9375,0.820313 -1.289062,0 -1.757813,-0.585938 -0.820313,0.117188 -0.703124,0.703124 -1.875,-1.875 -1.289063,-0.351562 -1.875,0.234375 -1.757813,0.46875 c -0.957418,1.107473 -1.906307,2.248283 -2.8125,3.398437 L 30.9375,-15.875 l 0.46875,0.46875 -0.9375,1.40625 1.054687,2.460937 c 0.853447,0.98505 1.725922,1.943944 2.578126,2.929688 l 1.289062,-1.054688 0.46875,0.585938 1.40625,-0.820312 0.46875,0.46875 1.289062,0 0.820313,0.9375 -0.46875,1.640624 0.9375,1.054688 -0.117187,1.875 0.820312,1.40625 -0.585938,1.171875 c -0.04999,0.852896 -0.117187,1.72509 -0.117187,2.578125 0.41133,1.155652 0.900653,2.234471 1.289063,3.398438 l 0.234374,1.8749998 0,0.9375 0.703126,0 1.171874,-0.7031253 1.289063,0 1.875,-2.2265625 -0.234375,-0.820312 1.40625,-1.171876 -1.054688,-1.054687 1.171876,-0.9375 1.171874,-0.703125 0.46875,-0.585938 -0.351562,-1.289062 0,-3.28125 0.9375,-1.992188 1.054688,-1.171874 1.289062,-3.046876 0,-0.820312 c -0.603184,0.07755 -1.167604,0.191512 -1.757812,0.234375 l 1.171874,-1.289063 1.640626,-1.171874 0.9375,-1.054688 0,-1.054688 c -0.200926,-0.386576 -0.383659,-0.902486 -0.585938,-1.289062 l -0.820312,1.054688 -0.585938,-0.820313 -0.9375,-0.703125 0,-1.40625 1.054688,1.171875 1.171874,-0.117187 c 0.525792,0.487027 1.062267,0.851741 1.523438,1.40625 l 0.351562,-0.46875 C 56.086294,-16.600167 56.25,-15.31927 56.25,-14 56.25,0.497474 44.497474,12.25 30,12.25 c -4.253547,0 -8.282479,-1.016614 -11.835937,-2.8124999 0.192971,-0.14955 0.46875,-0.3515626 0.46875,-0.3515626 L 18.398437,8.6171875 19.21875,7.7968748 19.453125,6.9765628 20.742187,6.6250001 21.679687,4.046875 21.445313,3.460937 22.03125,2.40625 23.554687,2.054687 24.257813,0.296875 24.140625,-2.046875 25.3125,-3.6875 25.429687,-5.328125 c -1.599128,-0.809062 -3.100293,-1.627894 -4.6875,-2.460938 l -0.820312,-1.640624 -1.40625,-0.351563 -0.820312,-2.109375 -1.875,0.234375 -1.757813,-1.289063 -1.757813,1.640626 0,0.234374 c -0.53062,-0.156254 -1.168148,-0.172342 -1.640624,-0.46875 l -0.351563,-1.171874 0,-1.171876 -1.171875,0.117188 c 0.09755,-0.787785 0.253354,-1.673291 0.351562,-2.460938 l -0.703124,0 -0.703126,0.9375 -0.703124,0.351563 -0.9375,-0.585937 -0.117188,-1.171876 0.117188,-1.40625 1.523437,-1.054687 1.171875,0 0.234375,-0.703125 1.40625,0.351562 1.054687,1.289063 0.234376,-2.226563 1.875,-1.523437 0.585937,-1.757813 1.40625,-0.585937 0.820313,-1.054687 1.757812,-0.351563 0.820312,-1.40625 -2.578124,0 1.640624,-0.703125 1.171876,0 1.523437,-0.585938 0.234375,1.523438 0.703125,-1.054688 -0.820313,-0.585937 0.234376,-0.585937 -0.585938,-0.585938 -0.703125,-0.117188 0.234375,-0.703124 -0.585938,-1.054688 -1.171874,0.46875 0.234374,-0.9375 -1.40625,-0.820312 -1.054687,1.992187 0.117187,0.585937 -1.054687,0.46875 -0.703125,1.523438 -0.234375,-1.40625 -1.875,-0.703125 -0.351563,-1.054687 2.460938,-1.40625 1.054688,-1.054688 0.117187,-1.289062 -0.585937,-0.351563 -0.234376,0 c 0.853089,-0.592107 1.655575,-1.151211 2.578126,-1.640625 l 0,0.351562 -0.820313,0.703126 -0.585937,1.40625 1.171874,0 0.351563,-0.9375 0.117187,-0.234376 c 0.47146,-0.340192 0.926059,-0.727237 1.40625,-1.054687 l 1.171876,0.351563 c 0.728476,0.504978 1.380294,1.01922 2.109374,1.523437 l 1.171876,-1.054687 -1.289063,-0.46875 -0.46875,-1.171876 -2.109375,-0.234374 0,-0.117188 0,-0.117188 c 0.03394,-0.01414 0.08317,0.01399 0.117188,0 l 0.703124,0.234376 0.585938,-0.585938 1.054688,-0.234375 c 0.264798,-0.1314 0.553022,-0.244613 0.820312,-0.351563 L 22.5,-38.492187 l 2.460937,1.757812 0,1.054688 -0.9375,1.054687 1.289063,2.578125 0.9375,-0.46875 1.054687,-1.757812 c 1.573071,-0.49623 3.085587,-1.071469 4.570313,-1.757813 l -0.117187,0.703125 0.703124,0.46875 1.289063,-0.9375 -0.585937,-0.703125 -0.9375,0.46875 -0.117188,-0.117187 1.289062,-3.515626 z m -14.296875,4.453126 1.054687,0.820312 0.9375,0 0,-0.9375 -1.054687,-0.46875 z m -3.515625,0.703124 -0.234375,0.585938 c 0,0 -0.385253,0.05607 -0.703125,0.117188 0.30288,-0.24996 0.62344,-0.466714 0.9375,-0.703126 z m 31.640625,0.117188 c 0.243187,0.18684 0.466766,0.390876 0.703125,0.585938 l -0.9375,1.054687 -1.289062,-1.40625 1.289062,0 z m -11.367187,1.523438 0,0.703124 0.46875,0.585938 0,1.054688 -0.234376,1.523437 1.171876,-0.234375 0.9375,-0.820312 -0.820313,-0.820313 c -0.257021,-0.698325 -0.498632,-1.322411 -0.820313,-1.992187 z m -1.054688,1.523437 -0.703125,0.234375 0.117187,1.40625 1.054688,-0.585938 z m 13.710938,12.539063 1.054687,1.289062 1.40625,2.929688 0.820313,0.9375 -0.46875,1.054687 0.820312,0.9375 c -0.3423,0.02287 -0.702855,0 -1.054688,0 -0.639153,-1.370355 -1.153901,-2.785136 -1.640624,-4.21875 L 47.34375,-17.28125 46.875,-19.039063 z M 3.867187,-15.875 c 0.15651,0.376591 0.820313,1.523437 0.820313,1.523437 l 1.992187,1.171876 2.109376,0.585937 0.820312,1.171875 1.40625,1.054688 0.703125,-0.234376 0.585937,0.351563 0,0.117187 -0.703124,2.226563 -0.585938,0.820313 0.117188,0.46875 -0.46875,1.757812 1.757812,3.164062 1.757812,1.640626 L 15,1 14.882813,3.460937 15.46875,4.75 14.882813,7.3281248 c 0,0 0.0093,0.089251 0,0.117188 C 8.173711,2.690095 3.75,-5.150765 3.75,-14 c 0,-0.630845 0.07342,-1.255292 0.117187,-1.875 z"
       inkscape:connector-curvature="0"
       id="path6534"
       style="color:#000000;fill:#808080;fill-opacity:1;fill-rule:nonzero;stroke:none;stroke-width:1;marker:none;visibility:visible;display:inline;overflow:visible;enable-background:accumulate" />
  </g>
</svg>
