<?xml version="1.0" encoding="UTF-8" standalone="no"?>
<!-- Created with Inkscape (http://www.inkscape.org/) -->

<svg
   xmlns:dc="http://purl.org/dc/elements/1.1/"
   xmlns:cc="http://creativecommons.org/ns#"
   xmlns:rdf="http://www.w3.org/1999/02/22-rdf-syntax-ns#"
   xmlns:svg="http://www.w3.org/2000/svg"
   xmlns="http://www.w3.org/2000/svg"
   xmlns:sodipodi="http://sodipodi.sourceforge.net/DTD/sodipodi-0.dtd"
   xmlns:inkscape="http://www.inkscape.org/namespaces/inkscape"
   version="1.1"
   width="90"
   height="90"
   id="svg3862"
   inkscape:version="0.48.3.1 r9886"
   sodipodi:docname="text-html-symbolic.svg">
  <sodipodi:namedview
     pagecolor="#ffffff"
     bordercolor="#666666"
     borderopacity="1"
     objecttolerance="10"
     gridtolerance="10"
     guidetolerance="10"
     inkscape:pageopacity="0"
     inkscape:pageshadow="2"
     inkscape:window-width="1094"
     inkscape:window-height="662"
     id="namedview7"
     showgrid="false"
     inkscape:zoom="3.6875"
     inkscape:cx="48.677966"
     inkscape:cy="45.966102"
     inkscape:window-x="0"
     inkscape:window-y="24"
     inkscape:window-maximized="0"
     inkscape:current-layer="layer1" />
  <defs
     id="defs3864" />
  <metadata
     id="metadata3867">
    <rdf:RDF>
      <cc:Work
         rdf:about="">
        <dc:format>image/svg+xml</dc:format>
        <dc:type
           rdf:resource="http://purl.org/dc/dcmitype/StillImage" />
        <dc:title />
      </cc:Work>
    </rdf:RDF>
  </metadata>
  <g
     id="layer1"
     transform="translate(0,74)">
    <path
       d="M 45,-74 C 20.147186,-74 0,-53.852814 0,-29 0,-4.1471858 20.147186,16 45,16 69.852814,16 90,-4.1471858 90,-29 90,-53.852814 69.852814,-74 45,-74 z m 3.164063,5.800781 c 7.123132,0.565917 13.609344,3.002794 19.160156,6.855469 l -1.582032,-0.351562 -1.933593,-0.703125 -2.8125,0.703125 -1.757813,1.230468 0,1.054688 -2.988281,1.933594 0.703125,2.8125 1.582031,-1.230469 1.054688,1.230469 1.230468,0.703125 0.703125,-2.109375 -0.351562,-1.230469 0.351562,-0.878906 1.757813,-1.582032 0.703125,0 -0.703125,1.757813 0,1.582031 c 0.691757,-0.192094 1.401458,-0.261731 2.109375,-0.351562 l -1.933594,1.40625 -0.175781,0.878906 -2.285156,1.933593 -2.285157,-0.527343 0,-1.40625 -1.054687,0.703125 0.527344,1.230468 -1.757813,0 -0.878906,1.582032 -1.054688,1.230468 -2.109374,0.351563 1.230468,1.230469 0.351563,1.230469 -1.582031,0 -1.933594,1.054687 0,3.164063 0.878906,0 0.878906,0.878906 1.933594,-0.878906 0.703125,-1.933594 1.40625,-0.878906 0.175781,-0.703125 2.285156,-0.527344 1.230469,1.40625 1.40625,0.703125 -0.878906,1.582031 1.230469,-0.351562 0.703125,-1.582032 -1.582032,-1.757812 0.703125,0 1.40625,1.230469 0.351563,1.757812 1.230469,1.582031 0.351562,-2.285156 0.703125,-0.351562 c 0.744373,0.788445 1.306654,1.749375 1.933594,2.636718 l 2.460937,0.175782 1.230469,0.878906 -0.527344,0.878906 -1.40625,1.230469 -1.933593,0 -2.636719,-0.878906 -1.230469,0.175781 -1.054687,1.054687 -2.8125,-2.8125 -1.933594,-0.527343 -2.8125,0.351562 -2.636719,0.703125 c -1.436127,1.661209 -2.859461,3.372424 -4.21875,5.097656 l -1.582031,4.042969 0.703125,0.703125 -1.40625,2.109375 1.582031,3.691406 c 1.28017,1.477575 2.588883,2.915916 3.867188,4.394531 l 1.933593,-1.582031 0.703125,0.878907 2.109375,-1.230469 0.703125,0.703125 1.933594,0 1.230469,1.40625 -0.703125,2.460937 1.40625,1.582031 -0.175781,2.8125 1.230468,2.109375 -0.878906,1.757813 c -0.07498,1.2793442 -0.175781,2.5876352 -0.175781,3.8671872 0.616995,1.733479 1.350979,3.351707 1.933594,5.097657 l 0.351562,2.8125 0,1.40625 1.054688,0 1.757812,-1.054688 1.933594,0 2.8125,-3.339844 -0.351563,-1.230468 2.109375,-1.757813 -1.582031,-1.582031 1.757813,-1.40625 1.757812,-1.054688 0.703125,-0.878906 -0.527344,-1.9335942 0,-4.921875 1.40625,-2.988281 1.582032,-1.757812 1.933593,-4.570313 0,-1.230468 c -0.904775,0.116325 -1.751405,0.287268 -2.636718,0.351562 l 1.757812,-1.933594 2.460938,-1.757812 1.40625,-1.582031 0,-1.582032 c -0.301388,-0.579864 -0.575488,-1.353729 -0.878907,-1.933593 l -1.230468,1.582031 -0.878907,-1.230469 -1.40625,-1.054687 0,-2.109375 1.582032,1.757812 1.757812,-0.175781 c 0.788687,0.730541 1.5934,1.277612 2.285156,2.109375 l 0.527344,-0.703125 C 84.129441,-32.900251 84.375,-30.978905 84.375,-29 84.375,-7.2537888 66.746211,10.375 45,10.375 c -6.38032,0 -12.423719,-1.524921 -17.753906,-4.2187498 0.289457,-0.224325 0.703125,-0.527344 0.703125,-0.527344 l -0.351563,-0.703125 1.230469,-1.230469 0.351563,-1.230468 1.933593,-0.527344 1.40625,-3.867188 -0.351562,-0.878906 0.878906,-1.582031 2.285156,-0.527344 1.054688,-2.636719 -0.175781,-3.5156252 1.757812,-2.460937 0.175781,-2.460938 c -2.398693,-1.213593 -4.65044,-2.44184 -7.03125,-3.691406 l -1.230468,-2.460937 -2.109375,-0.527344 -1.230469,-3.164062 -2.8125,0.351562 -2.636719,-1.933594 -2.636719,2.460938 0,0.351562 c -0.795931,-0.234382 -1.752222,-0.258514 -2.460937,-0.703125 l -0.527344,-1.757812 0,-1.757813 -1.757812,0.175782 c 0.146328,-1.181678 0.38003,-2.509937 0.527343,-3.691407 l -1.054687,0 -1.054688,1.40625 -1.054687,0.527344 -1.4062501,-0.878906 -0.175781,-1.757813 0.175781,-2.109375 2.2851561,-1.582031 1.757813,0 0.351562,-1.054687 2.109375,0.527343 1.582031,1.933594 0.351563,-3.339844 2.8125,-2.285156 0.878906,-2.636719 2.109375,-0.878906 1.230469,-1.582031 2.636719,-0.527344 1.230468,-2.109375 -3.867187,0 2.460937,-1.054688 1.757813,0 2.285156,-0.878906 0.351563,2.285156 1.054687,-1.582031 -1.230469,-0.878906 0.351563,-0.878906 -0.878906,-0.878907 -1.054688,-0.175781 0.351563,-1.054687 -0.878907,-1.582031 -1.757812,0.703125 0.351562,-1.40625 -2.109375,-1.230469 -1.582031,2.988281 0.175781,0.878906 -1.582031,0.703125 -1.054688,2.285156 -0.351562,-2.109375 -2.8125,-1.054687 -0.527344,-1.582031 3.691406,-2.109375 1.582032,-1.582031 0.175781,-1.933594 -0.878906,-0.527344 -0.351563,0 c 1.279633,-0.88816 2.483362,-1.726817 3.867188,-2.460937 l 0,0.527343 -1.230469,1.054688 -0.878906,2.109375 1.757812,0 0.527344,-1.40625 0.175781,-0.351563 c 0.70719,-0.510288 1.389088,-1.090856 2.109375,-1.582031 l 1.757813,0.527344 c 1.092715,0.757468 2.070441,1.52883 3.164062,2.285156 l 1.757813,-1.582031 -1.933594,-0.703125 -0.703125,-1.757813 -3.164062,-0.351562 0,-0.175781 0,-0.175782 c 0.05091,-0.02121 0.124756,0.02098 0.175781,0 l 1.054687,0.351563 0.878907,-0.878906 1.582031,-0.351563 c 0.397198,-0.1971 0.829533,-0.366919 1.230469,-0.527344 l -1.054688,1.054688 3.691406,2.636719 0,1.582031 -1.40625,1.582031 1.933594,3.867188 1.40625,-0.703125 1.582031,-2.636719 c 2.359606,-0.744345 4.62838,-1.607203 6.855469,-2.636719 l -0.175781,1.054688 1.054687,0.703125 1.933594,-1.40625 -0.878906,-1.054688 -1.40625,0.703125 -0.175781,-0.175781 1.933593,-5.273438 z m -21.445313,6.679688 1.582031,1.230469 1.40625,0 0,-1.40625 -1.582031,-0.703125 z m -5.273438,1.054687 -0.351562,0.878907 c 0,0 -0.577879,0.08411 -1.054687,0.175781 0.45432,-0.37494 0.93516,-0.700071 1.406249,-1.054688 z m 47.460938,0.175782 c 0.364781,0.280259 0.700149,0.586314 1.054687,0.878906 l -1.40625,1.582031 -1.933593,-2.109375 1.933593,0 z m -17.050781,2.285156 0,1.054687 0.703125,0.878907 0,1.582031 -0.351563,2.285156 1.757813,-0.351563 1.40625,-1.230468 -1.230469,-1.230469 c -0.385532,-1.047487 -0.747948,-1.983617 -1.230469,-2.988281 z m -1.582031,2.285156 -1.054688,0.351563 0.175781,2.109375 1.582032,-0.878907 z m 20.566406,18.808594 1.582031,1.933594 2.109375,4.394531 1.230469,1.40625 -0.703125,1.582031 1.230468,1.40625 c -0.513449,0.03431 -1.054282,0 -1.582031,0 -0.95873,-2.055532 -1.730852,-4.177704 -2.460937,-6.328125 l -1.230469,-1.40625 -0.703125,-2.636719 z M 5.800781,-31.8125 c 0.234764,0.564887 1.2304689,2.285156 1.2304689,2.285156 l 2.9882811,1.757813 3.164063,0.878906 1.230469,1.757813 2.109375,1.582031 1.054687,-0.351563 0.878906,0.527344 0,0.175781 -1.054687,3.339844 -0.878906,1.230469 0.175781,0.703125 -0.703125,2.636718 2.636719,4.746094 2.636718,2.4609382 1.230469,1.582031 -0.175781,3.691406 0.878906,1.933594 -0.878906,3.867187 c 0,0 0.01401,0.133876 0,0.175782 C 12.260566,-3.9648568 5.625,-15.726148 5.625,-29 c 0,-0.946268 0.110135,-1.882938 0.175781,-2.8125 z"
       inkscape:connector-curvature="0"
       id="path6534"
       style="color:#000000;fill:#808080;fill-opacity:1;fill-rule:nonzero;stroke:none;stroke-width:1;marker:none;visibility:visible;display:inline;overflow:visible;enable-background:accumulate" />
  </g>
</svg>
