<?xml version="1.0" encoding="UTF-8" standalone="no"?>
<!-- Created with Inkscape (http://www.inkscape.org/) -->

<svg
   xmlns:dc="http://purl.org/dc/elements/1.1/"
   xmlns:cc="http://creativecommons.org/ns#"
   xmlns:rdf="http://www.w3.org/1999/02/22-rdf-syntax-ns#"
   xmlns:svg="http://www.w3.org/2000/svg"
   xmlns="http://www.w3.org/2000/svg"
   xmlns:sodipodi="http://sodipodi.sourceforge.net/DTD/sodipodi-0.dtd"
   xmlns:inkscape="http://www.inkscape.org/namespaces/inkscape"
   width="60"
   height="60"
   id="svg2"
   version="1.1"
   inkscape:version="0.48.3.1 r9886"
   sodipodi:docname="edited.svg">
  <defs
     id="defs4" />
  <sodipodi:namedview
     id="base"
     pagecolor="#ffffff"
     bordercolor="#666666"
     borderopacity="1.0"
     inkscape:pageopacity="0.0"
     inkscape:pageshadow="2"
     inkscape:zoom="3.959798"
     inkscape:cx="4.445108"
     inkscape:cy="46.777661"
     inkscape:document-units="px"
     inkscape:current-layer="text2985"
     showgrid="false"
     inkscape:window-width="1366"
     inkscape:window-height="722"
     inkscape:window-x="0"
     inkscape:window-y="24"
     inkscape:window-maximized="1" />
  <metadata
     id="metadata7">
    <rdf:RDF>
      <cc:Work
         rdf:about="">
        <dc:format>image/svg+xml</dc:format>
        <dc:type
           rdf:resource="http://purl.org/dc/dcmitype/StillImage" />
        <dc:title />
      </cc:Work>
    </rdf:RDF>
  </metadata>
  <g
     inkscape:label="Layer 1"
     inkscape:groupmode="layer"
     id="layer1"
     transform="translate(0,-992.36218)">
    <g
       style="font-size:72px;font-style:normal;font-weight:normal;line-height:125%;letter-spacing:0px;word-spacing:0px;fill:#000000;fill-opacity:1;stroke:none;font-family:Sans"
       id="text2985">
      <path
         d="m 34.829814,1002.7207 c -3e-5,3.0055 -0.286244,5.9034 -0.858641,8.6938 -0.500903,2.719 -1.037553,5.5456 -1.609952,8.479 2.575894,-1.4309 5.116037,-2.8262 7.620439,-4.1858 2.50433,-1.3594 5.223357,-2.54 8.157088,-3.5419 l 0.64398,-0.2147 3.005242,9.0156 -0.85864,0.3223 c -2.862181,1.0732 -5.724313,1.7886 -8.58641,2.1462 -2.862172,0.2864 -5.795855,0.5369 -8.801068,0.7516 2.361232,2.0034 4.579385,3.9712 6.654468,5.903 2.07501,1.8605 4.00695,4.0429 5.795825,6.5472 l 0.536651,0.7512 -7.835097,5.4739 -0.42932,-0.644 c -1.717314,-2.5758 -3.219934,-5.1159 -4.507865,-7.6203 -1.216437,-2.5758 -2.468621,-5.2233 -3.756554,-7.9424 -1.287986,2.7191 -2.575946,5.3666 -3.863884,7.9424 -1.216429,2.5044 -2.683272,5.0445 -4.400535,7.6203 l -0.42932,0.644 -7.835097,-5.4739 0.536651,-0.7512 c 1.788822,-2.5043 3.720764,-4.6866 5.795825,-6.5472 2.075031,-1.9318 4.293184,-3.8996 6.654468,-5.903 -3.005264,-0.2147 -5.93895,-0.4651 -8.801068,-0.7516 -2.862147,-0.3576 -5.724281,-1.073 -8.5864099,-2.1462 l -0.8586405,-0.3223 3.0052424,-9.0156 0.64398,0.2147 c 2.933681,1.0019 5.652708,2.1825 8.157088,3.5419 2.504352,1.3596 5.044495,2.7549 7.620439,4.1858 -0.572453,-2.9334 -1.144877,-5.76 -1.717282,-8.479 -0.500895,-2.7904 -0.751332,-5.6883 -0.751311,-8.6938 l 0,-0.8586 9.659708,0 0,0.8586"
         style="font-variant:normal;font-stretch:normal;fill:#a5a5a5;fill-opacity:1;font-family:Ubuntu;-inkscape-font-specification:Ubuntu"
         id="path2990"
         inkscape:connector-curvature="0" />
    </g>
  </g>
</svg>
