<?xml version="1.0" encoding="UTF-8" standalone="no"?>
<!-- Created with Inkscape (http://www.inkscape.org/) -->

<svg
   xmlns:dc="http://purl.org/dc/elements/1.1/"
   xmlns:cc="http://creativecommons.org/ns#"
   xmlns:rdf="http://www.w3.org/1999/02/22-rdf-syntax-ns#"
   xmlns:svg="http://www.w3.org/2000/svg"
   xmlns="http://www.w3.org/2000/svg"
   xmlns:sodipodi="http://sodipodi.sourceforge.net/DTD/sodipodi-0.dtd"
   xmlns:inkscape="http://www.inkscape.org/namespaces/inkscape"
   width="60"
   height="60"
   id="svg2"
   version="1.1"
   inkscape:version="0.48.3.1 r9886"
   sodipodi:docname="edited.svg">
  <defs
     id="defs4" />
  <sodipodi:namedview
     id="base"
     pagecolor="#ffffff"
     bordercolor="#666666"
     borderopacity="1.0"
     inkscape:pageopacity="0.0"
     inkscape:pageshadow="2"
     inkscape:zoom="3.959798"
     inkscape:cx="-36.844877"
     inkscape:cy="36.676136"
     inkscape:document-units="px"
     inkscape:current-layer="text2985"
     showgrid="false"
     inkscape:window-width="1366"
     inkscape:window-height="722"
     inkscape:window-x="0"
     inkscape:window-y="24"
     inkscape:window-maximized="1" />
  <metadata
     id="metadata7">
    <rdf:RDF>
      <cc:Work
         rdf:about="">
        <dc:format>image/svg+xml</dc:format>
        <dc:type
           rdf:resource="http://purl.org/dc/dcmitype/StillImage" />
        <dc:title />
      </cc:Work>
    </rdf:RDF>
  </metadata>
  <g
     inkscape:label="Layer 1"
     inkscape:groupmode="layer"
     id="layer1"
     transform="translate(0,-992.36218)">
    <g
       style="font-size:72px;font-style:normal;font-weight:normal;line-height:125%;letter-spacing:0px;word-spacing:0px;fill:#000000;fill-opacity:1;stroke:none;font-family:Sans"
       id="text2985">
      <path
         d="m 34.655108,1003.4311 c -2.9e-5,2.8967 -0.27589,5.6898 -0.827582,8.3794 -0.482784,2.6207 -1.000022,5.3449 -1.551716,8.1723 2.482717,-1.3792 4.930978,-2.724 7.34479,-4.0344 2.413744,-1.3103 5.034416,-2.4482 7.862028,-3.4138 l 0.620687,-0.2069 2.896536,8.6895 -0.827582,0.3104 c -2.758649,1.0346 -5.517253,1.7242 -8.275819,2.069 -2.758641,0.2759 -5.586209,0.5173 -8.482715,0.7241 2.275821,1.9311 4.413738,3.8277 6.41376,5.6896 1.999953,1.7932 3.862011,3.8967 5.586178,6.3104 l 0.517239,0.7241 -7.551685,5.2758 -0.413791,-0.6207 c -1.655195,-2.4827 -3.103462,-4.931 -4.344805,-7.3447 -1.172435,-2.4827 -2.379325,-5.0344 -3.620671,-7.6552 -1.241397,2.6208 -2.482769,5.1725 -3.724119,7.6552 -1.172428,2.4137 -2.586213,4.862 -4.241357,7.3447 l -0.413791,0.6207 -7.551685,-5.2758 0.517239,-0.7241 c 1.724117,-2.4137 3.586175,-4.5171 5.586178,-6.3104 1.999973,-1.8619 4.137889,-3.7585 6.41376,-5.6896 -2.896557,-0.2068 -5.724124,-0.4481 -8.482715,-0.7241 -2.758616,-0.3448 -5.51722,-1.0344 -8.2758194,-2.069 l -0.8275819,-0.3104 2.8965363,-8.6895 0.620687,0.2069 c 2.827562,0.9656 5.448235,2.1035 7.862028,3.4138 2.413764,1.3104 4.862024,2.6552 7.34479,4.0344 -0.551745,-2.8274 -1.103464,-5.5516 -1.655164,-8.1723 -0.482777,-2.6896 -0.724155,-5.4827 -0.724134,-8.3794 l 0,-0.8275 9.310296,0 0,0.8275"
         style="font-variant:normal;font-stretch:normal;fill:#999999;fill-opacity:1;font-family:Ubuntu;-inkscape-font-specification:Ubuntu"
         id="path2990"
         inkscape:connector-curvature="0" />
    </g>
  </g>
</svg>
